<svg xmlns="http://www.w3.org/2000/svg" version="1.1" xmlns:xlink="http://www.w3.org/1999/xlink" xmlns:svgjs="http://svgjs.dev/svgjs" width="1000" height="625" viewBox="0 0 1000 625"><g transform="matrix(1,0,0,1,0,0)"><svg viewBox="0 0 512 320" data-background-color="#ffffff" preserveAspectRatio="xMidYMid meet" height="625" width="1000" xmlns="http://www.w3.org/2000/svg" xmlns:xlink="http://www.w3.org/1999/xlink"><g id="tight-bounds" transform="matrix(1,0,0,1,0,0)"><svg viewBox="0 0 512 320" height="320" width="512"><g><svg></svg></g><g><svg viewBox="0 0 512 320" height="320" width="512"><g><path xmlns="http://www.w3.org/2000/svg" d="M96 160c0-88.366 71.634-160 160-160 88.366 0 160 71.634 160 160 0 88.366-71.634 160-160 160-88.366 0-160-71.634-160-160z" fill="#ee3e38" fill-rule="nonzero" stroke="none" stroke-width="1" stroke-linecap="butt" stroke-linejoin="miter" stroke-miterlimit="10" stroke-dasharray="" stroke-dashoffset="0" font-family="none" font-weight="none" font-size="none" text-anchor="none" style="mix-blend-mode: normal" data-fill-palette-color="tertiary"></path></g><g transform="matrix(1,0,0,1,162.95035460992906,80)"><svg viewBox="0 0 186.09929078014187 160" height="160" width="186.09929078014187"><g><svg viewBox="0 0 186.09929078014187 160" height="160" width="186.09929078014187"><g><svg viewBox="0 0 186.09929078014187 160" height="160" width="186.09929078014187"><g><svg viewBox="0 0 186.09929078014187 160" height="160" width="186.09929078014187"><g id="textblocktransform"><svg viewBox="0 0 186.09929078014187 160" height="160" width="186.09929078014187" id="textblock"><g><svg viewBox="0 0 186.09929078014187 160" height="160" width="186.09929078014187"><g transform="matrix(1,0,0,1,0,0)"><svg width="186.09929078014187" viewBox="2.799999952316284 -35.04999923706055 41 35.25" height="160" data-palette-color="#ffffff"><path d="M23.6-24.55L23.6-24.55 23.7-15.3Q23.7-14.35 24.75-14.35L24.75-14.35Q27.85-14.35 29.63-16.07 31.4-17.8 31.4-20.15 31.4-22.5 29.73-24.2 28.05-25.9 24.8-25.9L24.8-25.9Q23.6-25.9 23.6-24.55ZM36.7-9.6L36.7-9.6Q37.65-8.6 43.45-2.05L43.45-2.05Q43.8-1.6 43.8-1.25L43.8-1.25Q43.8 0.05 42.65 0.05L42.65 0.05Q40 0.1 37.33 0.1 34.65 0.1 32 0.05L32 0.05Q30.55 0.05 29.35-1.1L29.35-1.1 25.05-7.6Q24.8-7.9 24.45-8L24.45-8Q23.65-8.3 23.65-7.35L23.65-7.35 23.65-2.25Q23.65-0.1 20.83 0.05 18 0.2 14.65 0.2 11.3 0.2 6.55-0.05L6.55-0.05Q5.1-0.15 4.23-1.05 3.35-1.95 3.2-3.1L3.2-3.1Q2.8-7.5 2.8-16.93 2.8-26.35 3.1-30.65 3.4-34.95 7.45-35L7.45-35Q11.25-35.05 17.8-35.05 24.35-35.05 28.65-34.95L28.65-34.95Q34.85-34.85 38.8-30.35 42.75-25.85 42.75-20.2L42.75-20.2Q42.75-16.9 41.23-14.1 39.7-11.3 36.7-9.6Z" opacity="1" transform="matrix(1,0,0,1,0,0)" fill="#ffffff" class="wordmark-text-0" data-fill-palette-color="quaternary" id="text-0"></path></svg></g></svg></g></svg></g></svg></g><g></g></svg></g></svg></g></svg></g></svg></g><defs></defs></svg><rect width="512" height="320" fill="none" stroke="none" visibility="hidden"></rect></g></svg></g></svg>